mesh 41 72
v 5 -50 5
v 5 -50 -5
v 5 -25 -5
v 5 -25 5
v 5 -75 30
v 5 -115 30
v 0 -125 0
v 5 -115 -30
v 5 -75 -30
v -5 -50 5
v -5 -50 -5
v -5 -25 -5
v -5 -25 5
v -5 -75 30
v -5 -115 30
v -5 -115 -30
v -5 -75 -30
v 30 -115 5
v 30 -75 5
v -30 -75 5
v -30 -115 5
v 30 -115 -5
v 30 -75 -5
v -30 -75 -5
v -30 -115 -5
v -9 0 -9
v -15 0 0
v -9 0 9
v 0 0 12
v 0 0 -12
v 9 0 -9
v 9 0 9
v 15 0 0
v -8 -25 16
v -20 -25 8
v -20 -25 -8
v -8 -25 -16
v 8 -25 -16
v 20 -25 -8
v 20 -25 8
v 8 -25 16
f 2 0 2 3
f 2 2 0 1
f 2 9 12 11
f 2 11 10 9
f 2 10 2 1
f 2 10 11 2
f 2 9 0 3
f 2 3 12 9
f 2 20 23 24
f 2 23 20 19
f 2 18 21 22
f 2 17 21 18
f 2 15 16 8
f 2 8 7 15
f 2 15 7 6
f 2 6 20 24
f 2 21 17 6
f 2 5 13 14
f 2 5 4 13
f 2 14 6 5
f 2 9 13 4
f 2 9 4 0
f 2 9 10 23
f 2 23 19 9
f 2 1 18 22
f 2 1 0 18
f 2 10 8 16
f 2 8 10 1
f 2 9 19 13
f 2 10 16 23
f 2 8 1 22
f 2 0 4 18
f 2 7 21 6
f 2 15 6 24
f 2 17 5 6
f 2 6 14 20
f 2 24 16 15
f 2 24 23 16
f 2 7 22 21
f 2 7 8 22
f 2 17 4 5
f 2 17 18 4
f 2 14 19 20
f 2 14 13 19
f 6 28 32 31
f 6 28 27 32
f 6 26 32 27
f 6 29 32 25
f 6 30 32 29
f 6 40 33 34
f 6 34 39 40
f 6 34 38 39
f 6 34 37 38
f 6 34 36 37
f 6 34 35 36
f 6 33 27 34
f 6 33 28 27
f 6 34 27 26
f 6 34 26 35
f 6 26 25 35
f 6 35 25 36
f 6 25 29 36
f 6 29 37 36
f 6 30 37 29
f 6 30 38 37
f 6 32 38 30
f 6 28 33 40
f 6 28 40 31
f 6 32 26 25
f 6 32 39 38
f 6 31 39 32
f 6 31 40 39
