mesh 60 72
v -15 0 0
v -15 -40 0
v -20 -40 0
v -5 -65 0
v 5 -65 0
v 20 -40 0
v 15 -40 0
v -20 0 0
v 20 0 0
v 25 -125 0
v -25 -125 0
v -5 -125 0
v 5 -125 0
v 10 -140 0
v -10 -140 0
v 10 -65 0
v -10 -65 0
v 25 -125 10
v 10 -140 10
v 5 -125 10
v -5 -125 10
v -25 -125 10
v 10 -65 10
v 5 -65 10
v -5 -65 10
v -10 -65 10
v -20 -40 10
v -15 -40 10
v 15 -40 10
v 20 -40 10
v 20 -5 10
v 15 -5 10
v -15 -5 10
v -20 -5 10
v 20 -125 10
v -20 -125 10
v -25 -85 45
v -20 -85 45
v 25 -85 45
v 20 -85 45
v 25 -80 45
v 20 -80 45
v -20 -80 45
v -25 -80 45
v -8 -136 12
v -3 -132 12
v 8 -136 12
v 1 -136 12
v 3 -132 12
v -10 -140 10
v -1 -136 12
v -20 -5 25
v -15 -5 25
v -15 0 25
v 20 -5 25
v 15 -5 25
v -20 0 25
v 15 0 0
v 15 0 25
v 20 0 25
f 5 8 5 6
f 5 6 5 4
f 5 5 15 4
f 5 0 1 7
f 5 7 1 2
f 5 1 3 2
f 5 2 3 16
f 5 16 15 9
f 5 9 10 16
f 5 12 13 14
f 5 12 14 11
f 5 30 31 28
f 5 29 30 28
f 5 22 29 28
f 5 22 28 23
f 5 27 32 33
f 5 26 27 33
f 5 25 24 27
f 5 27 26 25
f 5 22 25 17
f 5 21 17 25
f 5 17 38 39
f 5 39 34 17
f 5 35 37 36
f 5 36 21 35
f 1 5 30 8
f 1 5 29 30
f 1 15 29 5
f 1 15 22 29
f 1 9 17 15
f 1 17 22 15
f 1 12 19 17
f 1 12 17 9
f 1 13 19 12
f 1 13 18 19
f 1 26 2 7
f 1 26 7 33
f 1 25 16 2
f 1 25 2 26
f 1 21 10 16
f 1 21 16 25
f 1 20 11 10
f 1 20 10 21
f 1 14 11 20
f 5 36 37 42
f 5 36 42 43
f 5 39 38 40
f 5 39 40 41
f 5 38 40 17
f 5 17 40 9
f 5 36 43 21
f 5 43 10 21
f 4 48 47 46
f 5 18 49 20
f 5 20 19 18
f 1 49 14 20
f 4 50 45 44
f 5 55 31 30
f 5 55 30 54
f 5 53 51 52
f 5 51 33 32
f 5 51 32 52
f 5 53 56 51
f 1 51 33 7
f 1 56 51 7
f 5 8 6 57
f 5 59 58 55
f 5 59 55 54
f 1 30 54 59
f 1 30 59 8
f 1 18 49 14
f 1 18 14 13
